<?xml version="1.0" encoding="utf-8"?>
<!-- Generator: Adobe Illustrator 19.0.0, SVG Export Plug-In . SVG Version: 6.00 Build 0)  -->
<svg version="1.1" id="圖層_1" xmlns="http://www.w3.org/2000/svg" xmlns:xlink="http://www.w3.org/1999/xlink" x="0px" y="0px"
	 width="44.2px" height="44.2px" viewBox="0 0 44.2 44.2" style="enable-background:new 0 0 44.2 44.2;" xml:space="preserve">
<style type="text/css">
	.st0{fill:#FBB03B;}
</style>
<g id="XMLID_1731_" transform="translate(0,-952.36218)">
	<path id="XMLID_1732_" class="st0" d="M22.1,952.4C9.9,952.4,0,962.3,0,974.5c0,12.2,9.9,22.1,22.1,22.1c12.2,0,22.1-9.9,22.1-22.1
		C44.2,962.3,34.3,952.4,22.1,952.4z M31.3,962.3c0.3,0,0.6,0.1,0.8,0.3l3.7,3.9c0.4,0.4,0.4,1,0,1.4L22,982.3l-0.7,0.7l-3.1,3.2
		c-0.4,0.4-1.1,0.4-1.4,0l-3.7-3.9l-4.8-5c-0.4-0.4-0.4-1,0-1.4l3.8-3.9c0.4-0.4,1.1-0.4,1.4,0l4.1,4.2l13.1-13.7
		C30.9,962.5,31.1,962.4,31.3,962.3L31.3,962.3z"/>
</g>
</svg>
