<?xml version="1.0" encoding="utf-8"?>
<!-- Generator: Adobe Illustrator 21.1.0, SVG Export Plug-In . SVG Version: 6.00 Build 0)  -->
<svg version="1.1" id="圖層_1" xmlns="http://www.w3.org/2000/svg" xmlns:xlink="http://www.w3.org/1999/xlink" x="0px" y="0px"
	 width="117.8px" height="111.9px" viewBox="0 0 117.8 111.9" style="enable-background:new 0 0 117.8 111.9;" xml:space="preserve"
	>
<style type="text/css">
	.st0{fill:#FFFFFF;}
</style>
<path class="st0" d="M115.2,49.4c-0.2-0.1-0.5-0.1-0.7-0.2c-0.4-0.1-0.7-0.1-1.1-0.2l-0.4-0.2l-0.2-0.4c-0.2-0.5-0.2-0.8-0.2-1.1
	V13.9c0-0.7,0.3-1.4,0.8-1.9c2-2.2,2.4-5.9,0.9-8.4c-1.5-2.7-4.7-4.1-7.8-3.4c-2.4,0.6-4.3,2.3-5.1,4.6c-0.8,2.3-0.3,4.9,1.3,6.9
	c0.7,0.8,0.9,1.5,0.9,2.5v11c0,0.2,0,0.3-0.1,0.5v2.6l-1.7-1.8C86.7,8.6,68.3,2,47.2,6.8C26,11.6,12.3,25.5,6.4,48.1L6.2,49
	l-0.9-0.2c-1.3-0.3-2.6,0.1-3.7,0.9c-1,0.8-1.6,2-1.6,3.1C0,56.7,0,60.6,0.1,64.4c0,1.4,0.7,2.6,1.7,3.4c1,0.8,2.4,1,3.6,0.7l1-0.3
	l0.2,1c2.6,12.3,8.7,22.4,18,30.2c9.4,7.9,20.4,12.1,32.9,12.5c10.8,0.4,20.8-2.2,29.7-7.7c12.9-8.1,21.1-19.8,24.5-35l0.2-0.9
	l0.9,0.2c0.4,0.1,0.8,0.2,1.2,0.1c2.5-0.4,4-2.1,4-4.6V53C117.8,51.3,116.8,49.9,115.2,49.4z M59,103.3c-18.5,0-35.6-12.5-41.2-30.9
	c-1.3-4.1-1.9-8.5-1.9-13.5c0-0.7,0.3-1.4,0.6-1.7C24.5,46.4,35,39.5,47.7,36.6l9.1,26.3H36l32.3,39.4c-1.3,0.3-2.6,0.5-4,0.7
	C62.5,103.2,60.7,103.3,59,103.3z M92,88.3c-6,6.7-13.3,11.2-21.8,13.4L61,75.3h20.8L49.7,36.2c0.4-0.1,0.7-0.2,1.1-0.2
	c2.5-0.4,5-0.7,7-0.8l1.1-0.1l0.1,0c18.6,0.6,32.8,7.8,43.4,21.8c0.5,0.6,0.8,1.5,0.8,2.3C103,70.3,99.3,80.1,92,88.3z"/>
</svg>
