<?xml version="1.0" encoding="utf-8"?>
<!-- Generator: Adobe Illustrator 21.1.0, SVG Export Plug-In . SVG Version: 6.00 Build 0)  -->
<svg version="1.1" id="圖層_1" xmlns="http://www.w3.org/2000/svg" xmlns:xlink="http://www.w3.org/1999/xlink" x="0px" y="0px"
	 width="186px" height="49.5px" viewBox="0 0 186 49.5" style="enable-background:new 0 0 186 49.5;" xml:space="preserve">
<style type="text/css">
	.st0{fill:#FFFFFF;}
</style>
<g>
	<path class="st0" d="M124.9,38.4h-1.8l-0.6,1.2c-0.2,0.4-0.3,0.7-0.5,1.1h0c-0.2-0.4-0.4-0.7-0.6-1.1l-0.7-1.2h-1.9l1.9,3.1
		l-2.1,3.4h1.8l0.6-1.2c0.2-0.4,0.4-0.8,0.6-1.2h0.1c0.2,0.4,0.4,0.8,0.6,1.2l0.7,1.2h1.9l-2.1-3.2L124.9,38.4z"/>
	<polygon class="st0" points="130.8,39.3 130.8,38.4 126,38.4 126,39.8 128.6,39.8 125.7,44.1 125.7,45 130.9,45 130.9,43.6 
		127.8,43.6 	"/>
	<path class="st0" d="M134.2,43.7c-0.2,0-0.4-0.1-0.4-0.5v-7.6h-1.7v7.5c0,1.2,0.4,2,1.6,2c0.4,0,0.7-0.1,0.9-0.2l-0.2-1.3
		C134.3,43.7,134.3,43.7,134.2,43.7z"/>
	<path class="st0" d="M138.6,38.3c-1.6,0-3.2,1.3-3.2,3.5c0,2.2,1.5,3.4,3.2,3.4s3.2-1.3,3.2-3.4C141.7,39.5,140.2,38.3,138.6,38.3z
		 M138.6,43.7c-0.9,0-1.4-0.8-1.4-2c0-1.2,0.5-2.1,1.4-2.1c0.9,0,1.4,0.8,1.4,2.1C140,43,139.5,43.7,138.6,43.7z"/>
	<path class="st0" d="M146.6,43.9h-1.1c-0.8,0-1-0.2-1-0.5c0-0.3,0.1-0.4,0.3-0.6c0.3,0.1,0.6,0.2,0.8,0.2c1.4,0,2.5-0.8,2.5-2.2
		c0-0.4-0.1-0.8-0.3-1h1.1v-1.3h-2.4c-0.3-0.1-0.6-0.2-1-0.2c-1.4,0-2.7,0.8-2.7,2.4c0,0.8,0.4,1.4,0.9,1.7v0
		c-0.4,0.3-0.7,0.7-0.7,1.2c0,0.5,0.3,0.9,0.6,1.1v0.1c-0.6,0.3-0.9,0.8-0.9,1.4c0,1.2,1.2,1.7,2.7,1.7c2.2,0,3.6-1,3.6-2.3
		C149.1,44.4,148.2,43.9,146.6,43.9z M145.6,39.4c0.6,0,1,0.4,1,1.2c0,0.8-0.4,1.2-1,1.2c-0.6,0-1-0.4-1-1.2
		C144.6,39.9,145,39.4,145.6,39.4z M145.7,46.8c-1,0-1.6-0.3-1.6-0.9c0-0.3,0.1-0.5,0.4-0.8c0.2,0.1,0.5,0.1,0.9,0.1h0.8
		c0.7,0,1.1,0.1,1.1,0.6C147.4,46.3,146.7,46.8,145.7,46.8z"/>
	<path class="st0" d="M152.7,38.3c-1.6,0-3.2,1.3-3.2,3.5c0,2.2,1.5,3.4,3.2,3.4c1.6,0,3.2-1.3,3.2-3.4
		C155.9,39.5,154.4,38.3,152.7,38.3z M152.7,43.7c-0.9,0-1.4-0.8-1.4-2c0-1.2,0.5-2.1,1.4-2.1c0.9,0,1.4,0.8,1.4,2.1
		C154.1,43,153.6,43.7,152.7,43.7z"/>
	<path class="st0" d="M158.1,42.9c-0.6,0-1.1,0.5-1.1,1.1c0,0.6,0.5,1.1,1.1,1.1c0.6,0,1.1-0.5,1.1-1.1
		C159.2,43.4,158.8,42.9,158.1,42.9z"/>
	<path class="st0" d="M163.8,43.7c-1,0-1.6-0.8-1.6-2c0-1.2,0.7-2.1,1.7-2.1c0.4,0,0.7,0.2,1,0.4l0.8-1.1c-0.5-0.4-1.1-0.7-1.9-0.7
		c-1.8,0-3.4,1.3-3.4,3.5c0,2.2,1.4,3.4,3.2,3.4c0.7,0,1.5-0.2,2.1-0.8l-0.7-1.1C164.7,43.5,164.3,43.7,163.8,43.7z"/>
	<path class="st0" d="M169.4,38.3c-1.6,0-3.2,1.3-3.2,3.5c0,2.2,1.5,3.4,3.2,3.4c1.6,0,3.2-1.3,3.2-3.4
		C172.6,39.5,171.1,38.3,169.4,38.3z M169.4,43.7c-0.9,0-1.4-0.8-1.4-2c0-1.2,0.5-2.1,1.4-2.1c0.9,0,1.4,0.8,1.4,2.1
		C170.8,43,170.3,43.7,169.4,43.7z"/>
	<path class="st0" d="M181.5,38.3c-0.9,0-1.5,0.5-2.1,1.1c-0.3-0.7-0.9-1.1-1.8-1.1c-0.9,0-1.5,0.5-2,1h0l-0.1-0.9H174V45h1.7v-4.5
		c0.5-0.5,0.9-0.7,1.3-0.7c0.6,0,0.9,0.4,0.9,1.4V45h1.7v-4.5c0.5-0.5,0.9-0.7,1.3-0.7c0.6,0,0.9,0.4,0.9,1.4V45h1.7v-4.1
		C183.6,39.2,182.9,38.3,181.5,38.3z"/>
	<polygon class="st0" points="76.6,1.7 71.7,1.7 71.7,33 87.5,33 87.5,28.1 76.6,28.1 	"/>
	<path class="st0" d="M114.2,6.3c-3.1-3.1-6.8-4.6-11.1-4.6c-4.3,0-8,1.5-11.1,4.6C89,9.3,87.5,13,87.5,17.3c0,4.3,1.6,8,4.6,11
		c3.1,3.1,6.8,4.6,11.1,4.6c4.3,0,8-1.5,11.1-4.6c3-3.1,4.6-6.8,4.6-11C118.8,13,117.3,9.3,114.2,6.3z M110.8,25
		c-2.1,2.1-4.7,3.2-7.7,3.2c-3,0-5.5-1.1-7.6-3.2c-2.1-2.1-3.2-4.7-3.2-7.6c0-3,1.1-5.5,3.2-7.7c2.1-2.1,4.7-3.2,7.6-3.2
		c3,0,5.5,1.1,7.7,3.2c2.1,2.1,3.2,4.7,3.2,7.7C114,20.3,112.9,22.9,110.8,25z"/>
	<path class="st0" d="M181.4,28.4c3.1-3.1,4.6-6.8,4.6-11c0-4.3-1.5-8-4.6-11.1c-3.1-3.1-6.8-4.6-11.1-4.6c-4.3,0-8,1.5-11.1,4.6
		c-3.1,3.1-4.6,6.8-4.6,11.1c0,4.3,1.6,8,4.6,11c3.1,3.1,6.8,4.6,11.1,4.6C174.6,33,178.4,31.4,181.4,28.4z M159.5,17.3
		c0-3,1.1-5.5,3.2-7.7c2.1-2.1,4.7-3.2,7.6-3.2c3,0,5.5,1.1,7.7,3.2c2.1,2.1,3.2,4.7,3.2,7.7c0,3-1.1,5.5-3.2,7.6
		c-2.1,2.1-4.7,3.2-7.7,3.2c-3,0-5.5-1.1-7.6-3.2C160.6,22.9,159.5,20.3,159.5,17.3z"/>
	<polygon class="st0" points="22.1,6.3 29.1,29.5 31.6,28.7 24.6,5.5 	"/>
	<polygon class="st0" points="7,5.5 0,28.7 2.5,29.5 9.5,6.3 	"/>
	<path class="st0" d="M15.1,28.5c0,0.5-0.2,0.9-0.6,1.3c-0.3,0.4-0.7,0.5-1.3,0.5H8.8V33h4.5c1.2,0,2.3-0.4,3.2-1.3
		c0.8-0.9,1.3-1.9,1.3-3.1V1.7h-2.6V28.5z"/>
	<path class="st0" d="M57.8,18.8H40.3c-2.4,0-3.8,1.4-3.8,3.8v6.5c0,2.4,1.4,3.8,3.8,3.8h17.5c2.4,0,3.8-1.4,3.8-3.8v-6.5
		C61.6,20.2,60.2,18.8,57.8,18.8z M58.9,29.2c0,1-0.3,1.2-1.1,1.2H40.3c-0.9,0-1.1-0.3-1.1-1.2v-2h19.8V29.2z M58.9,24.6H39.1v-1.9
		c0-0.9,0.3-1.2,1.1-1.2h17.5c0.8,0,1.1,0.2,1.1,1.2V24.6z"/>
	<path class="st0" d="M61.1,2.5h-5.6c-1.3,0-2.3,0.4-3,1.2h-1.3h-7.8h-5.1l0.8-2h-2.9l-1.9,4.7h7l0,1.3c0,0.5,0,1.1-0.1,1.6h-7.8
		v2.6h6.7c-1.2,1.7-3.2,3.1-6,4.1l-0.9,0.3l0.6,2.6l1.2-0.4c3.7-1.3,6.4-3.2,7.8-5.8l7.2,6l1.9-1.9l-5.9-5h5.7v2
		c0,2.4,1.4,3.8,3.8,3.8h5.6c1,0,2-0.4,2.7-1.1c0.7-0.8,1.1-1.7,1.1-2.7V6.4c0-1-0.4-2-1.1-2.7C63,2.9,62.1,2.5,61.1,2.5z M51.6,9.2
		h-7.7C44,8.7,44,8.2,44,7.6l0-1.3h7.6V9.2z M62.3,13.8c0,0.9-0.3,1.2-1.2,1.2h-5.6c-0.9,0-1.2-0.3-1.2-1.2V6.4
		c0-0.9,0.3-1.2,1.2-1.2h5.6c0.9,0,1.2,0.3,1.2,1.2V13.8z"/>
	<path class="st0" d="M147.7,28.4c1.6-1.6,2.8-3.3,3.5-5.3c0.2-0.6,1.1-2.8,1.1-5.8c0-1-0.1-1.8-0.2-2.4c-5.2,0-10.3,0-15.5,0
		c0,1.6,0,3.2,0,4.8h10.6c-0.4,2-1.4,3.7-2.9,5.2c-2.1,2.1-4.7,3.2-7.7,3.2c-3,0-5.5-1.1-7.6-3.2c-2.1-2.1-3.2-4.7-3.2-7.6
		c0-3,1.1-5.5,3.2-7.7c2.1-2.1,4.7-3.2,7.6-3.2c2.2,0,4.2,0.6,6,1.8l3.5-3.5c-2.7-2.1-5.9-3.2-9.4-3.2c-4.3,0-8,1.5-11.1,4.6
		c-3.1,3.1-4.6,6.8-4.6,11.1c0,4.3,1.6,8,4.6,11c3.1,3.1,6.8,4.6,11.1,4.6C140.9,33,144.6,31.4,147.7,28.4z"/>
</g>
</svg>
