<?xml version="1.0" encoding="utf-8"?>
<!-- Generator: Adobe Illustrator 21.1.0, SVG Export Plug-In . SVG Version: 6.00 Build 0)  -->
<svg version="1.1" id="圖層_1" xmlns="http://www.w3.org/2000/svg" xmlns:xlink="http://www.w3.org/1999/xlink" x="0px" y="0px"
	 width="81.1px" height="77.1px" viewBox="0 0 81.1 77.1" style="enable-background:new 0 0 81.1 77.1;" xml:space="preserve">
<style type="text/css">
	.st0{fill:#FBB03B;}
</style>
<g>
	<path class="st0" d="M81.1,44.1v-7.6c0-1.2-0.7-2.1-1.8-2.5c-0.1-0.1-0.3-0.1-0.5-0.1c-0.2,0-0.5-0.1-0.7-0.2l-0.3-0.1l-0.1-0.3
		c-0.1-0.3-0.1-0.5-0.1-0.8v-23c0-0.5,0.2-1,0.5-1.3c1.4-1.5,1.6-4,0.6-5.8c-1-1.9-3.2-2.9-5.4-2.4c-1.7,0.4-3,1.6-3.5,3.1
		c-0.5,1.6-0.2,3.4,0.9,4.8c0.4,0.5,0.6,1,0.6,1.7v7.6c0,0.1,0,0.2,0,0.4v1.8l-1.2-1.2C59.7,5.9,47.1,1.4,32.5,4.7
		C17.9,8,8.5,17.6,4.4,33.1l-0.2,0.6l-0.6-0.1c-0.9-0.2-1.8,0-2.5,0.6c-0.7,0.6-1.1,1.4-1.1,2.2c-0.1,2.7-0.1,5.3,0,8
		c0,1,0.4,1.8,1.2,2.3c0.7,0.5,1.7,0.7,2.4,0.5L4.4,47l0.1,0.7c1.8,8.5,6,15.5,12.4,20.8c6.4,5.4,14.1,8.3,22.6,8.6
		c7.5,0.3,14.3-1.5,20.4-5.3c8.9-5.6,14.6-13.7,16.9-24.1L77,47l0.6,0.1c0.3,0.1,0.6,0.1,0.8,0.1C80.1,47,81.1,45.8,81.1,44.1z
		 M63.4,60.8c-5.1,5.7-11.5,9.1-19.1,10.1c-1.2,0.2-2.5,0.2-3.7,0.2c-12.7,0-24.5-8.6-28.4-21.3c-0.9-2.8-1.3-5.8-1.3-9.3
		c0-0.5,0.2-0.9,0.4-1.2c6-8,14-12.9,23.7-14.6c1.7-0.3,3.4-0.5,4.8-0.6l0.7-0.1l0,0c12.8,0.4,22.6,5.3,29.9,15
		c0.4,0.4,0.6,1,0.6,1.6C71,48.4,68.4,55.2,63.4,60.8z"/>
	<polygon class="st0" points="49.5,73.4 42.1,51.9 56.4,51.9 31.6,21.7 39.1,43.3 24.8,43.3 	"/>
</g>
</svg>
