<?xml version="1.0" encoding="utf-8"?>
<!-- Generator: Adobe Illustrator 19.0.0, SVG Export Plug-In . SVG Version: 6.00 Build 0)  -->
<svg version="1.1" id="圖層_1" xmlns="http://www.w3.org/2000/svg" xmlns:xlink="http://www.w3.org/1999/xlink" x="0px" y="0px"
	 width="250px" height="250px" viewBox="0 0 250 250" style="enable-background:new 0 0 250 250;" xml:space="preserve">
<style type="text/css">
	.st0{fill:#FDF6D9;}
	.st1{fill:#F7E599;}
	.st2{fill:#EEBC00;}
	.st3{fill:#FBF0C1;}
	.st4{fill:#F9EAA9;}
	.st5{fill:#F6E07E;}
	.st6{fill:#F3D85F;}
	.st7{fill:#F2D452;}
	.st8{fill:#F1CE36;}
	.st9{fill:#EEC617;}
</style>
<circle id="XMLID_29_" class="st0" cx="125" cy="125" r="125"/>
<g id="XMLID_1842_">
	<path id="XMLID_2942_" class="st1" d="M243.6,163.8c-8.2,25.3-24.3,47-45.4,62.3l0,0l-73.4-100.9v0L243.6,163.8z"/>
	<path id="XMLID_2920_" class="st2" d="M125,0v125.2L51.4,23.9C72.1,8.9,97.5,0,125,0z"/>
	<path id="XMLID_2917_" class="st0" d="M198.6,23.9L125,125.2V0C152.5,0,177.9,8.9,198.6,23.9z"/>
	<path id="XMLID_2914_" class="st3" d="M244,86.6l-119,38.6l73.6-101.3C219.7,39.3,235.8,61.2,244,86.6z"/>
	<path id="XMLID_2850_" class="st4" d="M250,125c0,13.6-2.2,26.6-6.2,38.8L125,125.2l119-38.6C247.9,98.7,250,111.6,250,125z"/>
	<path id="XMLID_2824_" class="st5" d="M198.4,226.2C198.4,226.2,198.4,226.2,198.4,226.2c-20.7,15-46,23.8-73.4,23.8V125.2
		L198.4,226.2L198.4,226.2z"/>
	<path id="XMLID_2814_" class="st6" d="M125,125.2V250c-27.4,0-52.8-8.8-73.4-23.8L125,125.2z"/>
	<path id="XMLID_1860_" class="st7" d="M125,125.2L125,125.2l-73.4,101c-21.1-15.3-37.2-37.1-45.5-62.4L125,125.2z"/>
	<path id="XMLID_1854_" class="st8" d="M125,125.2L6.1,163.8C2.2,151.6,0,138.6,0,125c0-13.4,2.1-26.3,6-38.5L125,125.2z"/>
	<path id="XMLID_1844_" class="st9" d="M125,125.2L6,86.5c8.2-25.4,24.3-47.2,45.4-62.6L125,125.2z"/>
</g>
</svg>
