<?xml version="1.0" encoding="utf-8"?>
<!-- Generator: Adobe Illustrator 21.1.0, SVG Export Plug-In . SVG Version: 6.00 Build 0)  -->
<svg version="1.1" id="圖層_1" xmlns="http://www.w3.org/2000/svg" xmlns:xlink="http://www.w3.org/1999/xlink" x="0px" y="0px"
	 width="60px" height="60px" viewBox="0 0 60 60" style="enable-background:new 0 0 60 60;" xml:space="preserve">
<style type="text/css">
	.st0{fill:#EFA83E;}
</style>
<g>
	<path class="st0" d="M46.4,13.9h-3.9V3.6c0-2-1.6-3.6-3.6-3.6H13.5c-2,0-3.6,1.6-3.6,3.6V29c0,2,1.6,3.6,3.6,3.6h12.4l0.7,0.6v23.1
		c0,2.1,1.7,3.8,3.8,3.8h16.1c2.1,0,3.8-1.7,3.8-3.8V17.6C50.1,15.6,48.5,13.9,46.4,13.9z M46.4,17.1c0.3,0,0.5,0.2,0.5,0.5v1.4
		h-4.5v-2H46.4z M13.5,29.4c-0.2,0-0.4-0.2-0.4-0.4V3.6c0-0.2,0.2-0.4,0.4-0.4h25.4c0.2,0,0.4,0.2,0.4,0.4V29c0,0.2-0.2,0.4-0.4,0.4
		h-2.6c-0.9,0-1.6,0.7-1.6,1.6v4.7l-7.2-5.9c-0.3-0.2-0.7-0.4-1-0.4L13.5,29.4L13.5,29.4z M35.2,40.3c0.3,0.2,0.7,0.4,1,0.4
		c0.2,0,0.5-0.1,0.7-0.2c0.6-0.3,0.9-0.8,0.9-1.5v-6.5h1c2,0,3.6-1.6,3.6-3.6v-6.7h4.5v27.6H29.8v-14L35.2,40.3z M46.4,56.8H30.3
		c-0.3,0-0.5-0.2-0.5-0.5v-3.1h17.2v3.1C46.9,56.5,46.7,56.8,46.4,56.8z"/>
	<path class="st0" d="M29,24.5c0-0.9-0.7-1.6-1.6-1.6H17.2c-0.9,0-1.6,0.7-1.6,1.6s0.7,1.6,1.6,1.6h10.2C28.3,26.1,29,25.4,29,24.5z
		"/>
	<path class="st0" d="M17.2,20.7h17.8c0.9,0,1.6-0.7,1.6-1.6c0-0.9-0.7-1.6-1.6-1.6H17.2c-0.9,0-1.6,0.7-1.6,1.6
		C15.6,20,16.3,20.7,17.2,20.7z"/>
	<path class="st0" d="M17.2,15.3h17.8c0.9,0,1.6-0.7,1.6-1.6c0-0.9-0.7-1.6-1.6-1.6H17.2c-0.9,0-1.6,0.7-1.6,1.6
		C15.6,14.6,16.3,15.3,17.2,15.3z"/>
	<path class="st0" d="M17.2,9.9h17.8c0.9,0,1.6-0.7,1.6-1.6c0-0.9-0.7-1.6-1.6-1.6H17.2c-0.9,0-1.6,0.7-1.6,1.6S16.3,9.9,17.2,9.9z"
		/>
</g>
</svg>
