<?xml version="1.0" encoding="utf-8"?>
<!DOCTYPE svg PUBLIC "-//W3C//DTD SVG 1.1//EN" "http://www.w3.org/Graphics/SVG/1.1/DTD/svg11.dtd">
<svg version="1.1" xmlns="http://www.w3.org/2000/svg" xmlns:xlink="http://www.w3.org/1999/xlink" x="0px" y="0px" viewBox="0 0 1000 1000" enable-background="new 0 0 1000 1000" xml:space="preserve">
<g fill="#25b141"><path d="M313.1,316.1c-19,0-38.1,12.6-38.1,31.6c0,19,19.1,31.7,38.1,31.7c19,0,31.6-12.7,31.6-31.7C344.7,328.6,332.1,316.1,313.1,316.1z"/><path d="M490.4,379.4c19.1,0,31.7-12.7,31.7-31.7c0-19-12.5-31.6-31.7-31.6c-19,0-38,12.5-38,31.6C452.4,366.7,471.5,379.4,490.4,379.4z"/><path d="M572.8,499.9c-12.5,0-25.3,12.7-25.3,25.3c0,12.8,12.7,25.3,25.3,25.3c19.3,0,31.7-12.5,31.7-25.3C604.5,512.6,592,499.9,572.8,499.9z"/><path d="M770.6,7.5H229.4C108.2,7.5,10,106.3,10,228V772c0,121.7,98.3,220.5,219.4,220.5h541.2C891.8,992.5,990,893.7,990,772V228C990,106.3,891.7,7.5,770.6,7.5z M395.5,639.4c-31.6,0-57.1-6.5-88.7-12.7l-88.6,44.4l25.3-76.2c-63.4-44.4-101.4-101.5-101.4-171.1c0-120.5,114.1-215.4,253.3-215.4c124.6,0,233.7,75.8,255.6,177.9c-8.1-0.9-16.2-1.5-24.5-1.5c-120.3,0-215.3,89.8-215.3,200.5c0,18.4,2.9,36.2,7.9,53.2C411.3,639,403.4,639.4,395.5,639.4L395.5,639.4z M769.1,728.2l19,63.4l-69.5-38.1c-25.3,6.3-50.8,12.7-76,12.7c-120.5,0-215.4-82.3-215.4-183.8c0-101.2,94.9-183.8,215.4-183.8c113.9,0,215.2,82.5,215.2,183.8C857.8,639.4,819.9,690,769.1,728.2L769.1,728.2z"/><path d="M712.1,499.9c-12.5,0-25.2,12.7-25.2,25.3c0,12.8,12.7,25.3,25.2,25.3c19,0,31.7-12.5,31.7-25.3C743.8,512.6,731.2,499.9,712.1,499.9z"/></g>
</svg>
